<svg width="192" height="480" viewBox="0 0 192 480" fill="none" xmlns="http://www.w3.org/2000/svg">
<path fill-rule="evenodd" clip-rule="evenodd" d="M93.9609 0H99.9722V12.2725H93.9609V0ZM20.1049 113.826H6.14087V127.928H20.1049V113.826ZM48.4866 113.826H25.2402V127.928H48.4866V113.826ZM20.1049 94.5881H6.14087V108.69H20.1049V94.5881ZM91.8033 17.4084H102.291L152.193 34.9471H38.6523L91.8033 17.4084ZM108.773 194.423H81.3984V256.276H108.773V194.423ZM113.911 316.383H76.2639V388.51H113.911V316.383ZM113.911 189.289H76.2639V261.416H113.911V189.289ZM113.911 443.638H76.2639V479.701H0L34.6488 279.53C35.0994 277.321 45.569 225.348 43.6547 211.67C41.7848 198.362 8.92114 183.157 0.419434 179.431L1.02197 133.063H20.1003H169.812H190.469L191.072 179.431C182.571 183.157 149.707 198.362 147.841 211.67C145.932 225.281 156.294 276.821 156.834 279.494L191.491 479.701H113.911V443.638ZM108.778 448.772H81.4033V479.699H108.778V448.772ZM81.3984 321.521H108.773V383.375H81.3984V321.521ZM164.675 94.5881H109.181V108.69H164.675V94.5881ZM48.4841 89.4528H25.2378V45.0156H15.0708V38.9062H175.292V45.0156H164.676V89.4528H109.182V49.605H48.4841V89.4528ZM186.452 113.826H169.815V127.928H186.452V113.826ZM169.815 94.5881H186.452V108.69H169.815V94.5881ZM48.4866 94.5881H25.2402V108.69H48.4866V94.5881ZM109.181 113.826H164.675V127.928H109.181V113.826ZM81.176 54.7358H53.623V89.4514H81.176V54.7358ZM86.3135 54.7358H104.048V69.2977H86.3135V54.7358ZM104.047 113.826H53.623V127.928H104.047V113.826ZM53.623 94.5881H104.047V108.69H53.623V94.5881ZM104.048 74.4336H86.3135V89.4507H104.048V74.4336Z" fill="black"/>
</svg>
