<svg width="204" height="354" viewBox="0 0 204 354" fill="none" xmlns="http://www.w3.org/2000/svg">
<g clip-path="url(#clip0)">
<path d="M204 354H0V0H204V354ZM4.90209 349.103H199.098V4.89714H4.90209V349.103Z" fill="black"/>
<path fill-rule="evenodd" clip-rule="evenodd" d="M204 70.8631V75.8333H199.098L23.5996 75.8832C23.6493 78.1938 23.6824 80.4877 23.6824 82.7484C23.6824 91.5585 23.2353 99.6538 21.8441 103.959C20.1052 109.345 12.9839 113.451 4.90209 116.476C3.29567 117.091 1.63955 117.64 0 118.155V112.935C1.7058 112.387 3.34535 111.805 4.90209 111.173C11.2616 108.663 16.1305 105.671 17.1905 102.413C20.5358 92.024 17.7701 54.8387 17.1739 47.4914L4.90209 40.0776L0 37.1187V31.3506L4.90209 34.3094L21.8441 44.5325L21.9435 45.7958C22.0263 46.7267 23.0034 58.1632 23.4506 70.9129L199.098 70.8631H204ZM204 122.976V118.039C202.377 118.122 200.754 118.205 199.098 118.288C137.093 121.579 52.0516 126.932 37.925 129.675C28.9157 131.42 16.379 135.592 4.90209 139.831C3.24598 140.446 1.60643 141.061 0 141.676V146.979C0.76305 146.695 1.53357 146.403 2.3098 146.109L2.31141 146.108L2.31463 146.107C3.17098 145.783 4.03426 145.456 4.90209 145.134C16.6771 140.745 29.7769 136.307 38.8524 134.562C52.9128 131.836 137.424 126.516 199.098 123.225C200.754 123.142 202.394 123.059 204 122.976ZM199.098 156.038C190.056 156.587 182.487 157.285 179.556 158.233C178.661 158.515 177.351 158.976 175.664 159.569L175.636 159.579C175.147 159.751 174.626 159.934 174.074 160.128C156.95 166.228 111.456 182.402 78.9138 180.092C54.0887 178.313 23.2021 182.652 4.90209 185.843C3.14662 186.159 1.50706 186.458 0 186.741V191.778C1.4905 191.495 3.13005 191.196 4.90209 190.896C5.0676 190.847 5.24964 190.813 5.44823 190.797L5.44831 190.797L5.64705 191.296C5.84578 191.828 6.04452 192.343 6.25981 192.858C9.00896 199.59 10.4001 205.342 10.6319 210.794C10.516 215.349 9.60516 219.771 7.76687 224.674C7.27004 226.004 6.75664 227.317 6.22669 228.647C5.77954 229.794 5.33239 230.941 4.9018 232.121C4.07374 234.266 3.27881 236.46 2.63292 238.704C-0.397764 249.093 0.214998 259.882 4.47121 270.769L4.9018 271.867L8.41276 280.876C11.9403 289.886 11.311 299.211 6.40886 310.265C5.86234 311.495 5.36551 312.709 4.9018 313.889C1.44052 322.782 0.181875 330.711 0.97681 338.591C1.53989 344.176 3.14632 349.396 4.88524 354H10.1517C9.50579 352.404 8.87647 350.759 8.32995 349.08C7.17067 345.605 6.24325 341.948 5.84578 338.075C5.05085 330.063 6.64072 321.868 10.8804 312.293C16.3455 299.943 17.008 289.387 12.9505 279.048L9.00896 268.941C5.18334 259.1 4.62026 249.409 7.33628 240.117C8.26794 236.918 9.52222 233.703 10.7329 230.599L10.781 230.476L10.9785 229.974C11.4421 228.798 11.9026 227.63 12.3377 226.436C14.3748 221.001 15.4016 216.064 15.534 210.744C15.2691 204.527 13.762 198.227 10.781 190.947L10.5823 190.448L10.3835 189.949L10.3835 189.949L10.3838 189.949C13.4807 189.434 16.8425 188.918 20.4031 188.403L20.4032 188.403C20.4529 188.57 20.5191 188.736 20.5853 188.902C21.0822 190.265 21.6121 191.595 22.1255 192.858C24.8747 199.59 26.2658 205.342 26.4977 210.794C26.3817 215.366 25.4709 219.771 23.6326 224.674C23.2445 225.713 22.8463 226.742 22.4459 227.776L22.4457 227.777L22.4432 227.783C22.3319 228.071 22.2204 228.359 22.109 228.647L22.0672 228.753C20.8049 231.962 19.4979 235.284 18.4986 238.704C15.468 249.093 16.0807 259.882 20.3369 270.77L24.2785 280.876C27.806 289.886 27.1767 299.211 22.2746 310.265C17.6706 320.655 15.9482 329.648 16.8425 338.591C17.2069 342.264 18.0349 345.788 19.0452 349.08C19.5751 350.792 20.1548 352.438 20.751 354H26.0174C25.3715 352.404 24.7422 350.759 24.1957 349.08C23.0364 345.606 22.109 341.949 21.7115 338.075C20.9166 330.063 22.5064 321.868 26.7461 312.293C32.2113 299.943 32.8737 289.387 28.8162 279.048L24.8747 268.941C21.0491 259.1 20.486 249.409 23.202 240.117C24.1337 236.918 25.3879 233.703 26.5987 230.599L26.6467 230.476L26.8441 229.975L26.8442 229.975L26.8442 229.974L26.8445 229.974L26.8448 229.973L26.845 229.973L26.845 229.972L26.8451 229.972L26.8451 229.972L26.8452 229.972L26.8455 229.971L26.8458 229.97L26.846 229.97L26.846 229.97L26.8461 229.97L26.8461 229.97C27.3091 228.795 27.769 227.628 28.2035 226.436C30.2405 221.001 31.2673 216.064 31.3998 210.744C31.1348 204.527 29.6277 198.227 26.6467 190.947C26.5758 190.772 26.5042 190.597 26.4324 190.421L26.4299 190.414C26.1336 189.688 25.833 188.951 25.5537 188.204C25.5155 188.118 25.4829 188.026 25.4494 187.932C25.4247 187.863 25.3996 187.792 25.3715 187.722L25.3717 187.722C28.6673 187.289 32.0623 186.874 35.5733 186.491L35.5733 186.492H35.5899C35.6109 186.597 35.6453 186.696 35.6804 186.797L35.6804 186.797C35.7005 186.855 35.7208 186.913 35.7389 186.974C36.4676 189.051 37.2294 191.013 37.9913 192.858C40.7404 199.59 42.1481 205.342 42.38 210.794C42.2475 215.349 41.3366 219.77 39.4983 224.674C39.0015 226.004 38.4881 227.334 37.9747 228.647L37.9329 228.753C36.6706 231.962 35.3636 235.284 34.3644 238.704C31.3337 249.093 31.9464 259.881 36.2027 270.769L40.1442 280.876C43.6717 289.886 43.0424 299.211 38.1403 310.265C33.5363 320.654 31.814 329.647 32.7083 338.591C33.0726 342.264 33.9007 345.788 34.9109 349.08C35.4408 350.792 36.0205 352.437 36.6167 354H41.8831C41.2372 352.404 40.6079 350.758 40.0614 349.08C38.9021 345.605 37.9747 341.948 37.5772 338.075C36.7823 330.063 38.3722 321.868 42.6118 312.293C48.077 299.942 48.7394 289.387 44.6819 279.048L40.7404 268.941C36.9148 259.1 36.3517 249.409 39.0677 240.117C39.982 236.977 41.207 233.838 42.3966 230.789L42.5124 230.492C43.0424 229.146 43.5724 227.799 44.0692 226.436C46.1062 221.001 47.133 216.064 47.2655 210.744C47.0005 204.527 45.4934 198.244 42.5124 190.947C41.9162 189.484 41.32 187.988 40.757 186.458C40.7322 186.375 40.7032 186.297 40.6743 186.218L40.6742 186.217C40.6452 186.138 40.6162 186.059 40.5914 185.976L40.5913 185.976C44.0195 185.66 47.5139 185.378 51.0083 185.162L51.0083 185.162C51.058 185.328 51.1077 185.478 51.1574 185.627C52.002 188.204 52.946 190.614 53.8568 192.858C56.606 199.59 58.0137 205.342 58.2455 210.794C58.1131 215.349 57.2022 219.771 55.3639 224.674C54.8671 226.004 54.3537 227.334 53.8403 228.647L53.7986 228.753C52.5362 231.962 51.2292 235.284 50.23 238.704C47.1993 249.093 47.8286 259.881 52.0682 270.769L56.0098 280.876C59.5373 289.886 58.908 299.211 54.0059 310.265C49.4019 320.655 47.6795 329.648 48.5738 338.591C48.9382 342.264 49.7662 345.788 50.7765 349.08C51.3064 350.792 51.8861 352.437 52.4823 354H57.7487C57.1028 352.404 56.4735 350.759 55.927 349.08C54.7677 345.605 53.8403 341.948 53.4428 338.075C52.6479 330.046 54.2378 321.868 58.4774 312.293C63.9426 299.943 64.605 289.387 60.5475 279.048L56.606 268.941C52.7804 259.1 52.2173 249.409 54.9333 240.117C55.8476 236.978 57.0725 233.838 58.2621 230.789L58.378 230.492C58.908 229.146 59.4379 227.799 59.9348 226.436C61.9884 221.001 62.9986 216.064 63.1311 210.744C62.8661 204.527 61.359 198.244 58.378 190.947C57.6328 189.135 56.9041 187.273 56.2251 185.345L56.076 184.896L56.076 184.896C59.6366 184.729 63.1973 184.646 66.7082 184.646H66.7084L66.7084 184.647L66.718 184.676C66.7246 184.697 66.7309 184.717 66.7371 184.738C66.7474 184.773 66.7572 184.807 66.7668 184.841L66.7669 184.842C66.7903 184.924 66.813 185.004 66.8409 185.079C67.7352 187.855 68.7455 190.448 69.7226 192.858C72.4717 199.591 73.8794 205.342 74.1113 210.794C73.9788 215.349 73.0679 219.771 71.2296 224.674C70.7328 226.004 70.2194 227.334 69.706 228.647L69.6643 228.753C68.4019 231.962 67.0949 235.284 66.0957 238.704C63.065 249.093 63.6943 259.882 67.934 270.77L71.8755 280.876C75.403 289.886 74.7737 299.228 69.8716 310.265C65.2676 320.655 63.5453 329.648 64.4561 338.591C64.8205 342.264 65.632 345.788 66.6422 349.08C67.1722 350.792 67.7518 352.438 68.348 354H73.6144C72.9686 352.404 72.3392 350.759 71.7927 349.08C70.6334 345.606 69.706 341.948 69.3085 338.075C68.5136 330.047 70.1035 321.868 74.3431 312.293C79.8083 299.943 80.4707 289.387 76.4298 279.048L72.4717 268.941C68.6461 259.1 68.083 249.409 70.799 240.117C71.7133 236.978 72.9382 233.838 74.1278 230.79L74.2438 230.492C74.7737 229.146 75.3037 227.799 75.8005 226.436C77.8541 221.001 78.8643 216.064 78.9968 210.744C78.7318 204.527 77.2248 198.244 74.2438 190.947C73.4654 189.068 72.7036 187.14 72.0246 185.145L72.0245 185.145C71.9749 185.012 71.9252 184.879 71.8921 184.73L71.892 184.729C74.1608 184.779 76.3965 184.879 78.5826 185.045C79.9571 185.145 81.3647 185.211 82.7723 185.245L82.7724 185.245C82.7928 185.307 82.8104 185.365 82.8275 185.422L82.8276 185.422L82.8278 185.423L82.828 185.424L82.8282 185.424C82.8525 185.505 82.8759 185.583 82.9049 185.661C83.733 188.221 84.6769 190.631 85.5878 192.858C88.3369 199.591 89.7446 205.342 89.9765 210.794C89.844 215.349 88.9331 219.771 87.0949 224.675C86.598 226.004 86.0846 227.334 85.5712 228.647L85.5296 228.753C84.2672 231.962 82.9601 235.284 81.9609 238.704C78.9302 249.094 79.5595 259.865 83.7992 270.77L87.7407 280.876C91.2683 289.886 90.6389 299.228 85.7369 310.266C81.1494 320.655 79.4105 329.648 80.3048 338.591C80.6692 342.264 81.4972 345.789 82.5074 349.08C83.0374 350.792 83.617 352.438 84.2132 354H89.4797C88.8338 352.404 88.2045 350.759 87.6579 349.08C86.4987 345.606 85.5712 341.949 85.1738 338.076C84.3788 330.063 85.9687 321.868 90.2084 312.294C95.6735 299.943 96.336 289.387 92.2951 279.048L88.3535 268.941C84.5113 259.1 83.9482 249.409 86.6643 240.117C87.5785 236.978 88.8034 233.839 89.993 230.79L89.9931 230.79L90.109 230.493C90.6389 229.146 91.1689 227.8 91.6657 226.437C93.7193 221.001 94.7295 216.064 94.862 210.745C94.597 204.528 93.09 198.228 90.109 190.947C89.4134 189.235 88.7178 187.489 88.0885 185.677C88.0772 185.643 88.0658 185.61 88.0545 185.577C88.041 185.538 88.0275 185.5 88.014 185.461L87.9931 185.402L87.9678 185.329C87.9583 185.301 87.9489 185.274 87.9395 185.245L87.9393 185.245L87.9396 185.245C91.3678 185.178 94.8622 184.946 98.4228 184.596L98.4228 184.597C98.4725 184.763 98.5222 184.929 98.5719 185.079C99.4662 187.855 100.476 190.448 101.454 192.858C104.219 199.59 105.61 205.342 105.842 210.794C105.71 215.349 104.799 219.771 102.961 224.674C102.464 226.004 101.951 227.317 101.437 228.63L101.437 228.63C100.162 231.889 98.8534 235.246 97.8266 238.704C94.796 249.093 95.4253 259.881 99.6649 270.769L103.606 280.876C107.134 289.886 106.505 299.228 101.603 310.265C97.0151 320.655 95.2928 329.648 96.1871 338.591C96.5514 342.264 97.3629 345.788 98.3732 349.08C98.9031 350.792 99.4827 352.437 100.079 354H105.345C104.7 352.404 104.07 350.759 103.524 349.08C102.364 345.605 101.437 341.948 101.039 338.075C100.245 330.063 101.834 321.868 106.074 312.293C111.539 299.942 112.202 289.387 108.161 279.048L104.219 268.941C100.377 259.1 99.814 249.409 102.53 240.117C103.474 236.875 104.749 233.617 105.991 230.476C106.162 230.027 106.336 229.578 106.509 229.129L106.509 229.128C106.855 228.23 107.2 227.333 107.531 226.436C109.585 221.001 110.595 216.064 110.728 210.744C110.463 204.527 108.956 198.227 105.975 190.947C105.13 188.885 104.285 186.741 103.557 184.53C103.54 184.475 103.522 184.419 103.503 184.364C103.467 184.253 103.43 184.142 103.408 184.031L103.408 184.031C106.819 183.599 110.247 183.067 113.676 182.452L113.676 182.452C113.709 182.635 113.758 182.801 113.808 182.967L113.808 182.967L113.808 182.967L113.808 182.967L113.808 182.968L113.808 182.968C114.818 186.542 116.094 189.866 117.319 192.858C120.085 199.591 121.476 205.342 121.708 210.794C121.575 215.349 120.664 219.771 118.826 224.674C118.329 226.004 117.816 227.318 117.303 228.631C116.027 231.889 114.719 235.247 113.709 238.704C110.678 249.093 111.291 259.865 115.531 270.77L119.472 280.876C123 289.886 122.37 299.228 117.468 310.265C112.881 320.655 111.142 329.648 112.053 338.591C112.417 342.264 113.229 345.788 114.239 349.08C114.769 350.792 115.348 352.438 115.945 354H121.211C120.565 352.404 119.936 350.759 119.389 349.08C118.23 345.606 117.303 341.949 116.905 338.076C116.11 330.063 117.7 321.868 121.94 312.293C127.405 299.943 128.067 289.387 124.026 279.048L120.085 268.941C116.243 259.1 115.68 249.409 118.396 240.117C119.34 236.876 120.615 233.618 121.857 230.476C122.028 230.027 122.201 229.578 122.374 229.129C122.72 228.232 123.066 227.334 123.397 226.437C125.451 221.001 126.461 216.064 126.593 210.745C126.328 204.528 124.821 198.228 121.84 190.947C120.681 188.121 119.538 185.162 118.627 182.054L118.601 181.957C118.561 181.811 118.522 181.672 118.495 181.522L118.495 181.521C121.956 180.823 125.384 180.058 128.763 179.261C128.796 179.443 128.829 179.626 128.879 179.809C129.955 184.58 131.611 188.985 133.185 192.858C135.95 199.59 137.341 205.342 137.573 210.794C137.457 215.349 136.53 219.77 134.692 224.674C134.304 225.713 133.906 226.741 133.505 227.775L133.504 227.777C133.392 228.067 133.28 228.356 133.168 228.647C131.893 231.888 130.584 235.246 129.574 238.704C126.544 249.093 127.14 259.881 131.396 270.769L135.337 280.876C138.865 289.885 138.236 299.228 133.334 310.265C128.746 320.654 127.007 329.647 127.918 338.59C128.282 342.264 129.111 345.788 130.121 349.079C130.634 350.792 131.214 352.437 131.81 354H137.076C136.431 352.404 135.801 350.758 135.255 349.079C134.095 345.605 133.168 341.948 132.771 338.075C131.976 330.063 133.565 321.868 137.805 312.293C143.27 299.942 143.933 289.387 139.892 279.047L135.95 268.941C132.108 259.1 131.545 249.409 134.261 240.117C135.193 236.918 136.447 233.703 137.657 230.6L137.657 230.6L137.657 230.599L137.657 230.599L137.658 230.599L137.658 230.599L137.658 230.599L137.658 230.598L137.706 230.475L137.903 229.974C138.367 228.798 138.827 227.63 139.262 226.436C141.316 221 142.326 216.063 142.459 210.744C142.194 204.527 140.687 198.227 137.706 190.946C136.132 187.106 134.592 183.017 133.615 178.629C133.565 178.446 133.532 178.263 133.499 178.08C137.076 177.149 140.571 176.185 143.933 175.221L143.933 175.221C143.949 175.404 143.982 175.603 144.015 175.803L144.016 175.803C144.893 182.12 147.046 187.938 149.05 192.858C151.816 199.59 153.207 205.342 153.439 210.794C153.323 215.349 152.412 219.771 150.574 224.674C150.223 225.612 149.857 226.541 149.491 227.468L149.49 227.47C149.337 227.857 149.185 228.244 149.034 228.631C147.758 231.889 146.45 235.246 145.44 238.704C142.409 249.093 143.022 259.865 147.262 270.769L151.203 280.876C154.731 289.869 154.101 299.211 149.216 310.265C144.612 320.655 142.889 329.648 143.784 338.591C144.148 342.264 144.976 345.788 145.986 349.08C146.5 350.792 147.079 352.437 147.676 354H152.942C152.296 352.404 151.667 350.759 151.12 349.08C149.961 345.605 149.034 341.948 148.636 338.075C147.841 330.063 149.431 321.868 153.671 312.293C159.136 299.943 159.815 289.37 155.757 279.048L151.816 268.941C147.974 259.1 147.411 249.409 150.127 240.117C151.071 236.875 152.346 233.617 153.588 230.476C153.844 229.804 154.104 229.132 154.364 228.461L154.365 228.458L154.367 228.455C154.627 227.782 154.888 227.109 155.145 226.436C157.182 221.001 158.192 216.064 158.324 210.744C158.059 204.527 156.552 198.227 153.571 190.947C151.501 185.893 149.497 180.424 148.752 174.423C148.719 174.207 148.702 174.008 148.686 173.808L148.686 173.808C152.495 172.661 156.105 171.514 159.451 170.417L159.451 170.417C159.451 170.633 159.451 170.849 159.467 171.049C159.484 172.03 159.55 172.994 159.649 173.958C160.345 180.973 162.713 187.456 164.916 192.858C167.682 199.59 169.073 205.342 169.305 210.794C169.189 215.349 168.261 219.77 166.423 224.674C166.035 225.713 165.637 226.741 165.237 227.775L165.23 227.791C165.12 228.076 165.01 228.361 164.899 228.647C163.624 231.889 162.316 235.246 161.306 238.704C158.275 249.077 158.888 259.865 163.127 270.769L164.32 273.828C165.247 276.187 166.157 278.529 167.067 280.872L167.069 280.876C170.613 289.886 169.967 299.228 165.081 310.265C160.461 320.654 158.739 329.664 159.649 338.591C160.014 342.264 160.825 345.788 161.835 349.08C162.365 350.792 162.945 352.437 163.541 354H168.808C168.162 352.404 167.533 350.758 166.986 349.08C165.827 345.605 164.899 341.948 164.518 338.075C163.69 330.046 165.297 321.868 169.536 312.293C175.002 299.942 175.664 289.37 171.623 279.048C170.696 276.704 169.785 274.36 168.874 272.016L167.682 268.941C163.839 259.1 163.276 249.409 165.992 240.117C166.936 236.875 168.212 233.617 169.454 230.476C169.678 229.887 169.906 229.301 170.134 228.714L170.136 228.71C170.428 227.957 170.722 227.202 171.01 226.436C173.047 221.001 174.058 216.064 174.19 210.744C173.925 204.527 172.418 198.227 169.437 190.946C167.251 185.627 165.148 179.826 164.518 173.443C164.386 172.113 164.303 170.783 164.303 169.437V168.788L164.303 168.788C168.725 167.292 172.534 165.946 175.515 164.882L175.515 164.882C175.482 165.115 175.465 165.331 175.449 165.564C175.2 168.389 175.234 171.182 175.515 173.958C176.211 180.99 178.579 187.456 180.782 192.858C183.547 199.59 184.938 205.342 185.17 210.794C185.054 215.349 184.143 219.771 182.305 224.674L180.765 228.664C179.49 231.905 178.181 235.246 177.171 238.704C174.141 249.093 174.753 259.882 178.993 270.769L182.935 280.876C186.462 289.886 185.833 299.228 180.947 310.265C176.343 320.655 174.604 329.648 175.515 338.591C175.879 342.264 176.708 345.788 177.718 349.08C178.231 350.792 178.811 352.437 179.407 354H184.673C184.028 352.404 183.398 350.759 182.852 349.08C181.692 345.605 180.765 341.948 180.384 338.075C179.556 330.047 181.162 321.868 185.402 312.293C190.884 299.943 191.53 289.387 187.489 279.048L183.547 268.941C179.705 259.1 179.142 249.409 181.858 240.117C182.772 236.978 183.997 233.838 185.187 230.79L185.303 230.492C185.833 229.146 186.363 227.799 186.876 226.436C188.913 221.001 189.923 216.064 190.056 210.744C189.791 204.527 188.284 198.227 185.303 190.947C183.117 185.627 181.013 179.826 180.384 173.443C180.053 170.268 180.103 167.076 180.55 163.768C180.583 163.536 180.616 163.319 180.649 163.087L180.649 163.086C180.781 163.037 180.914 162.987 181.03 162.954C182.785 162.388 186.694 161.906 191.828 161.491L191.828 161.491C191.811 161.574 191.799 161.657 191.787 161.74V161.74C191.778 161.798 191.769 161.857 191.759 161.915C191.755 161.94 191.75 161.965 191.745 161.989C191.099 166.062 190.983 170.018 191.381 173.958C192.093 180.973 194.445 187.456 196.647 192.858C197.641 195.268 198.452 197.546 199.098 199.74C199.545 201.236 199.91 202.699 200.191 204.112L200.192 204.113L200.192 204.113L200.192 204.113C200.258 204.428 200.324 204.744 200.374 205.043C200.489 205.658 200.589 206.256 200.672 206.854C200.754 207.486 200.837 208.118 200.887 208.733C200.953 209.431 201.003 210.112 201.036 210.794C201.019 211.476 200.986 212.174 200.92 212.855C200.904 213.204 200.87 213.57 200.837 213.919L200.837 213.92C200.804 214.136 200.771 214.352 200.754 214.567C200.705 215 200.639 215.448 200.556 215.897L200.546 215.963C200.499 216.275 200.451 216.601 200.374 216.911C200.351 217.095 200.312 217.288 200.274 217.477C200.257 217.561 200.24 217.644 200.225 217.726C200.026 218.706 199.777 219.687 199.479 220.701C199.403 220.981 199.318 221.26 199.23 221.548L199.23 221.548C199.203 221.636 199.175 221.725 199.148 221.815C199.131 221.865 199.115 221.931 199.098 221.981C198.817 222.862 198.519 223.76 198.171 224.674C197.79 225.694 197.389 226.715 196.991 227.727L196.816 228.173C196.754 228.331 196.692 228.489 196.631 228.647C195.356 231.888 194.047 235.246 193.037 238.704C190.006 249.076 190.619 259.865 194.859 270.769L196.051 273.828C196.401 274.719 196.749 275.607 197.096 276.495C197.669 277.958 198.239 279.417 198.817 280.876C198.916 281.125 199.016 281.391 199.098 281.641C199.264 282.089 199.413 282.538 199.545 282.97C199.711 283.419 199.844 283.868 199.943 284.317C200.042 284.666 200.142 285.032 200.225 285.397C200.291 285.663 200.357 285.929 200.39 286.195C200.473 286.511 200.523 286.81 200.572 287.126C200.655 287.542 200.721 287.957 200.771 288.373C201.086 290.766 201.135 293.193 200.904 295.687C200.821 296.535 200.705 297.382 200.556 298.263C200.489 298.745 200.39 299.244 200.291 299.726L200.241 299.976C200.107 300.617 199.947 301.246 199.783 301.885L199.728 302.103C199.545 302.818 199.33 303.549 199.098 304.264C198.486 306.209 197.724 308.204 196.813 310.265C192.209 320.654 190.487 329.664 191.381 338.59C191.745 342.264 192.573 345.788 193.583 349.079C194.097 350.792 194.677 352.437 195.273 354H200.539C199.893 352.404 199.264 350.758 198.717 349.079C197.558 345.605 196.631 341.948 196.25 338.075C195.604 331.625 196.498 325.059 199.098 317.745C199.711 315.967 200.44 314.155 201.268 312.293C202.377 309.783 203.288 307.356 204 304.996V280.809C203.802 280.228 203.586 279.629 203.355 279.047C202.427 276.704 201.516 274.36 200.605 272.016L199.413 268.941C199.297 268.658 199.198 268.376 199.098 268.093C195.538 258.551 195.091 249.143 197.724 240.117C198.121 238.737 198.585 237.341 199.098 235.961C199.631 234.424 200.221 232.911 200.801 231.419L200.802 231.419L200.802 231.418L200.803 231.417L200.803 231.415C200.925 231.101 201.047 230.788 201.168 230.475C201.264 230.232 201.36 229.989 201.456 229.746C201.89 228.647 202.321 227.553 202.742 226.436C203.222 225.173 203.636 223.926 204 222.713V199.092C203.272 196.482 202.328 193.789 201.168 190.946C200.456 189.201 199.744 187.406 199.098 185.561C197.757 181.754 196.68 177.731 196.25 173.442C195.852 169.586 196.018 165.68 196.796 161.607C196.803 161.575 196.808 161.545 196.814 161.514C196.822 161.464 196.83 161.415 196.838 161.367L196.838 161.366L196.838 161.366L196.846 161.316C196.849 161.292 196.853 161.269 196.857 161.245C196.864 161.206 196.871 161.166 196.879 161.125C197.608 161.092 198.353 161.042 199.098 160.992C200.688 160.909 202.327 160.826 204 160.743V155.772C203.044 155.82 202.098 155.873 201.167 155.925C200.469 155.964 199.779 156.003 199.098 156.038ZM115.1 155.64C115.1 161.534 110.391 166.312 104.583 166.312C98.7752 166.312 94.0669 161.534 94.0669 155.64C94.0669 149.746 98.7752 144.968 104.583 144.968C110.391 144.968 115.1 149.746 115.1 155.64Z" fill="black"/>
</g>
<defs>
<clipPath id="clip0">
<rect width="204" height="354" fill="white"/>
</clipPath>
</defs>
</svg>
