<svg width="160" height="382" viewBox="0 0 160 382" fill="none" xmlns="http://www.w3.org/2000/svg">
<path d="M22.8659 369.045C22.6623 366.592 2.41064 123.144 2.01087 107.107C1.89075 102.304 2.77844 91.7746 4.07148 79.4414V79.471C5.75498 65.2636 11.9483 20.2161 13.0802 11.5781C18.5777 15.2159 41.5284 20.9421 80.7951 20.9421C120.067 20.9421 143.015 15.2159 148.51 11.5781L156.086 79.7602V79.7307C157.08 94.5799 157.682 106.599 157.541 108.98C157.144 115.743 140.353 360.087 139.74 368.967C137.467 372.888 116.429 379.693 81.3414 379.693C45.8538 379.693 24.7008 372.73 22.8932 369.209L22.8659 369.045Z" stroke="black" stroke-width="3" stroke-miterlimit="10" stroke-linecap="round" stroke-linejoin="round"/>
<path d="M80.793 2.2168C120.065 2.2168 143.013 7.94046 148.508 11.5783C143.013 15.2161 120.065 20.9422 80.793 20.9422C41.5263 20.9422 18.5756 15.2161 13.0781 11.5783C18.5756 7.94046 41.5238 2.2168 80.793 2.2168Z" stroke="black" stroke-width="3" stroke-miterlimit="10" stroke-linecap="round" stroke-linejoin="round"/>
<path d="M4.06982 79.4416C23.6656 88.5346 69.3001 89.1098 80.4086 89.1098C91.3972 89.1098 136.142 88.5399 156.084 79.7309V79.7604C136.488 70.6674 90.8538 70.0923 79.7453 70.0923C68.7566 70.0923 24.0117 70.6622 4.06982 79.4712V79.4416V79.4416Z" stroke="black" stroke-width="3" stroke-miterlimit="10" stroke-linecap="round" stroke-linejoin="round"/>
</svg>
