<svg width="256" height="459" viewBox="0 0 256 459" fill="none" xmlns="http://www.w3.org/2000/svg">
<path fill-rule="evenodd" clip-rule="evenodd" d="M65.9311 0L41.8252 3.24985L42.7849 10.3681L66.8907 7.11829L65.9311 0ZM197.935 14.4634C194.892 15.6683 192.379 17.7612 190.523 20.7022C188.131 24.4867 187.359 28.7218 187.14 31.7251L4.52051 31.6047C6.69835 25.2007 19.2208 18.7609 38.9997 13.9859L39.8476 20.247L40.3474 20.7513C40.5437 20.9477 44.7298 25.0669 53.1911 25.0712C54.3782 25.0712 55.6501 24.991 57.0068 24.808C67.9359 23.3353 71.8543 17.623 72.0149 17.3775L72.4567 16.7126L72.3228 15.7218L71.881 12.4462L71.35 8.49217C85.9832 6.84098 101.576 6.00204 117.718 6.01538C147.957 6.03323 176.385 9.03217 197.935 14.4634ZM254.9 238.966L250.665 238.961L250.675 223.5H236.104L235.365 458.057L231.129 458.044L231.987 186.022L233.765 186.028V183.834H250.702L250.723 152.637H233.789V148.402H250.726L250.747 117.206H233.813V112.971H250.75L250.771 82.0538H233.838V77.8187H250.774L250.795 46.2269H233.858V41.9918H250.798L250.803 34.6662C250.812 21.1798 247.92 18.801 241.846 18.7967C231.627 18.7922 231.1 32.0063 231.1 34.6527H226.865C226.866 33.698 226.908 32.7269 226.996 31.7529L219.997 31.7492C219.957 28.5137 219.725 24.7427 218.426 21.4493C222.423 23.3445 225.555 25.3277 227.719 27.3388C229.391 20.493 233.668 14.5594 241.851 14.566C255.045 14.5749 255.038 27.1521 255.034 34.6676V34.6705L254.9 238.966ZM250.699 188.069L250.678 219.265H236.117L236.216 188.069H250.699ZM0.572966 185.606L0 457.63L4.23515 457.639L4.80811 185.615L0.572966 185.606ZM33.695 256.28L33.2703 457.915L37.5054 457.924L37.9301 256.289L33.695 256.28ZM115.848 457.968L116.135 366.942L120.37 366.955L120.083 457.981L115.848 457.968ZM195.21 458.025L195.614 265.918L199.85 265.927L199.445 458.034L195.21 458.025ZM4.43115 57.2843H33.5371V63.6348H4.43115V57.2843ZM33.5296 67.8692H4.42358V74.2197H33.5296V67.8692ZM4.41699 78.4539H33.523V84.8044H4.41699V78.4539ZM33.502 110.208H4.396V116.558H33.502V110.208ZM4.38843 120.791H33.4944V127.142H4.38843V120.791ZM33.5156 89.0377H4.40967V95.3882H33.5156V89.0377ZM4.38208 131.377H33.4881V137.728H4.38208V131.377ZM56.4411 20.6136C62.1087 19.8505 65.4244 17.82 67.1024 16.4276L45.7617 19.3105C47.8636 20.3058 51.3713 21.2964 56.4411 20.6136ZM4.40259 99.6239H33.5086V105.974H4.40259V99.6239ZM191.396 31.7305L215.749 31.7485C215.535 22.1044 213.505 17.4988 204.611 17.4945C193.98 17.49 191.816 27.0536 191.396 31.7305ZM4.37451 141.961H33.4805V148.312H4.37451V141.961ZM43.4578 15.3486L67.5609 12.0954L67.4583 11.3143L43.3506 14.5677L43.4578 15.3486ZM4.36816 152.546H33.4741V158.896H4.36816V152.546ZM231.419 118.481H219.94V150.524H231.419V118.481ZM219.917 154.758H231.395V181.525H219.917V154.758ZM231.442 82.4942H219.964V114.249H231.442V82.4942ZM231.282 223.076L219.88 223.067L219.884 218.069L231.358 193.72L231.282 223.076ZM230.432 185.761L219.904 185.752V186.792L229.941 186.801L230.432 185.761ZM227.946 191.031L219.891 208.124L219.904 191.027L227.946 191.031ZM231.465 46.5697H219.987V78.2595H231.465V46.5697ZM220.002 35.9872H231.48V41.5812H220.002V35.9872ZM101.575 364.29L115.543 364.299L116.012 185.687L45.8618 185.638L101.575 364.29ZM120.153 326.728L120.247 185.688L186.697 185.733L130.743 364.309L119.778 364.3L119.877 326.728H120.153ZM33.296 244.651L33.452 185.631L5.56445 185.613L33.296 244.651ZM146.271 364.321L135.182 364.312L191.131 185.736H195.393L195.201 260.509L146.271 364.321ZM37.6847 185.634L37.5061 253.614L89.4924 364.281L97.1372 364.286L41.4243 185.638L37.6847 185.634ZM215.767 35.91H4.44287V42.2604H215.767V35.91ZM37.7393 57.0499H92.7781V159.191H37.7393V57.0499ZM199.456 251.477L215.651 217.118L215.669 185.749L199.625 185.741L199.456 251.477ZM33.54 53.0576L4.43421 53.0396L4.43857 46.4259L215.762 46.5642L215.673 181.517L4.34937 181.379L4.35386 173.703L180.324 173.819V169.584L4.35822 169.468L4.36271 163.117L33.4687 163.14V163.403L96.9779 163.443V163.18L180.328 163.234L180.333 159.003L96.9779 158.945L96.9823 152.594L180.337 152.652V148.417L96.9868 148.364L96.9913 142.013L180.342 142.067L180.346 137.832L96.9913 137.778L96.9958 131.428L180.351 131.481L180.355 127.246L97.0001 127.193L97.0046 120.842L180.355 120.896L180.36 116.665L97.0091 116.607V110.256L180.364 110.314L180.368 106.079L97.0136 106.021L97.018 99.6708L180.373 99.7288V95.4936L97.0225 95.4401L97.027 89.0896L180.377 89.1433L180.382 84.9081L97.027 84.8546L97.0315 78.5041L180.386 78.5576V74.327L97.0359 74.2689L97.0403 67.9184L180.391 67.972L180.395 63.7413L97.0403 63.6833L97.0448 57.3328L180.4 57.3908L180.404 53.1557L97.0493 53.1021V52.8344L33.54 52.7942V53.0576Z" fill="black"/>
</svg>
