<svg width="204" height="354" viewBox="0 0 204 354" fill="none" xmlns="http://www.w3.org/2000/svg">
<path d="M204 354H0V0H204V354ZM4.90209 349.08H199.098V4.92036H4.90209V349.08Z" fill="black"/>
<path fill-rule="evenodd" clip-rule="evenodd" d="M79.1458 2.45996L201.549 72.8244V78.8419L179.506 114.082C182.658 115.692 185.821 117.319 188.991 118.949C191.417 120.196 193.848 121.446 196.283 122.693C198.071 123.607 199.827 124.505 201.549 125.386V130.971C160.875 110.06 115.547 86.9372 77.7049 67.7046L51.1575 134.911L201.549 219.953V225.638L56.1258 143.405L169.189 308.968L201.549 326.572V332.207L165.794 312.758L46.3547 137.886L2.45117 113.068V107.367L46.8184 132.451L92.7921 16.0242L69.1925 2.45996H79.1458ZM97.1311 18.5176L79.5267 63.0668C80.4461 63.5346 81.6703 64.157 83.1733 64.9212C89.6292 68.2036 101.228 74.1012 115.911 81.5847L138.733 42.4379L97.1311 18.5176ZM120.333 83.8454C136.265 91.9573 155.277 101.682 175.068 111.822L197.392 76.1656L143.022 44.9147L120.333 83.8454ZM2.45117 236.044V228.531L110.479 351.54H103.872L2.45117 236.044ZM106.256 178.23C100.973 178.23 96.6675 182.868 96.6675 188.586C96.6675 194.288 100.973 198.942 106.256 198.942C111.539 198.942 115.845 194.304 115.845 188.586C115.845 182.884 111.539 178.23 106.256 178.23Z" fill="black"/>
</svg>
